<?xml version="1.0" encoding="utf-8"?>
<!-- Generator: Adobe Illustrator 23.0.6, SVG Export Plug-In . SVG Version: 6.00 Build 0)  -->
<svg version="1.1" id="Calque_1" xmlns="http://www.w3.org/2000/svg" xmlns:xlink="http://www.w3.org/1999/xlink" x="0px" y="0px"
	 viewBox="0 0 306.63 72.14" style="enable-background:new 0 0 306.63 72.14;" xml:space="preserve">
<style type="text/css">
	.st0{fill:#FFFFFF;}
</style>
<g>
	<path class="st0" d="M49.11,54.84V29.78c0-3.07-0.66-5.37-1.97-6.91c-1.31-1.53-3.35-2.3-6.12-2.3c-3.63,0-6.32,1.04-8.05,3.13
		c-1.73,2.09-2.6,5.3-2.6,9.63v21.52h-5.84V29.78c0-3.07-0.66-5.37-1.97-6.91c-1.31-1.53-3.36-2.3-6.15-2.3
		c-3.66,0-6.33,1.1-8.03,3.29c-1.7,2.19-2.55,5.78-2.55,10.78v20.21H0V16.31h4.75l0.95,5.27h0.28c1.1-1.88,2.65-3.34,4.66-4.39
		s4.25-1.58,6.73-1.58c6.02,0,9.96,2.18,11.81,6.54h0.28c1.15-2.02,2.81-3.61,4.99-4.78c2.18-1.17,4.66-1.76,7.45-1.76
		c4.36,0,7.62,1.12,9.79,3.36c2.17,2.24,3.25,5.82,3.25,10.74v25.14H49.11z"/>
	<path class="st0" d="M60.86,16.31h6.26l8.44,21.97c1.85,5.02,3,8.64,3.45,10.86h0.28c0.3-1.2,0.94-3.24,1.92-6.13
		c0.97-2.89,4.15-11.79,9.54-26.7H97L80.44,60.19c-1.64,4.34-3.56,7.41-5.75,9.23c-2.19,1.82-4.88,2.72-8.07,2.72
		c-1.78,0-3.54-0.2-5.27-0.6v-4.68c1.29,0.28,2.73,0.42,4.32,0.42c4.01,0,6.87-2.25,8.58-6.75l2.14-5.48L60.86,16.31z"/>
	<path class="st0" d="M149.59,13.85l-0.18-0.04l-16.56,41.03h-4.61l-16.56-40.99l-0.18,0.04l0.7,20.71v14.84l5.73,0.98v4.43H99.56
		v-4.43l5.73-0.98V9.11l-5.73-0.98V3.66h5.73h8.86l16.31,41.59h0.21l16.28-41.59h14.63v4.46l-5.73,0.98v40.32l5.73,0.98v4.43h-18.39
		v-4.43l5.73-0.98V34.59L149.59,13.85z"/>
	<path class="st0" d="M184.54,55.58c-5.3,0-9.51-1.76-12.64-5.29c-3.13-3.53-4.69-8.1-4.69-13.73v-1.55c0-5.41,1.61-9.92,4.83-13.52
		c3.22-3.6,7.04-5.4,11.44-5.4c5.11,0,8.98,1.55,11.62,4.64s3.96,7.22,3.96,12.38v4.32h-24.68l-0.11,0.18
		c0.07,3.66,1,6.66,2.78,9.02c1.78,2.36,4.28,3.53,7.49,3.53c2.34,0,4.4-0.33,6.17-1c1.77-0.67,3.3-1.59,4.59-2.76l2.71,4.5
		c-1.36,1.31-3.16,2.42-5.4,3.32C190.37,55.13,187.68,55.58,184.54,55.58z M183.48,21.55c-2.32,0-4.3,0.98-5.94,2.94
		c-1.64,1.96-2.65,4.41-3.02,7.37l0.07,0.18h17.54v-0.91c0-2.72-0.73-4.99-2.18-6.82C188.5,22.46,186.34,21.55,183.48,21.55z
		 M185.59,2.18h8.09l0.07,0.21l-9.46,9.14h-5.17L185.59,2.18z"/>
	<path class="st0" d="M231.5,50.31c-1.24,1.73-2.76,3.05-4.55,3.94s-3.87,1.34-6.24,1.34c-4.64,0-8.27-1.68-10.88-5.04
		c-2.61-3.36-3.92-7.79-3.92-13.27v-0.74c0-6.12,1.31-11.05,3.92-14.8c2.61-3.75,6.26-5.63,10.95-5.63c2.25,0,4.24,0.42,5.96,1.25
		c1.72,0.83,3.19,2.03,4.41,3.6V5.45l-5.73-0.98V0h5.73h6.93v49.43l5.73,0.98v4.43h-11.74L231.5,50.31z M212.84,37.27
		c0,3.82,0.79,6.89,2.36,9.21c1.57,2.32,4,3.48,7.28,3.48c2.06,0,3.8-0.47,5.2-1.41c1.41-0.94,2.57-2.26,3.48-3.97V26.93
		c-0.89-1.59-2.05-2.86-3.48-3.8c-1.43-0.94-3.14-1.41-5.13-1.41c-3.3,0-5.75,1.37-7.33,4.11s-2.37,6.31-2.37,10.69V37.27z"/>
	<path class="st0" d="M249.08,50.41l5.73-0.98V22.25l-5.73-0.98V16.8h12.66v32.63l5.73,0.98v4.43h-18.39V50.41z M261.74,7.07h-6.93
		V0h6.93V7.07z"/>
	<path class="st0" d="M297.56,54.84c-0.21-1.03-0.38-1.96-0.49-2.78c-0.12-0.82-0.2-1.64-0.25-2.46c-1.34,1.71-3.01,3.13-5.01,4.27
		s-4.14,1.71-6.42,1.71c-3.96,0-6.97-0.97-9.04-2.9s-3.09-4.66-3.09-8.17c0-3.61,1.46-6.39,4.38-8.35
		c2.92-1.96,6.92-2.94,12.01-2.94h7.14v-4.43c0-2.23-0.7-3.99-2.11-5.29s-3.36-1.95-5.87-1.95c-1.73,0-3.26,0.22-4.59,0.67
		c-1.32,0.45-2.4,1.05-3.22,1.83l-0.74,4.01h-5.34v-7.38c1.73-1.38,3.83-2.49,6.29-3.32c2.46-0.83,5.13-1.25,8.02-1.25
		c4.31,0,7.8,1.1,10.48,3.3c2.67,2.2,4.01,5.36,4.01,9.46v18.32c0,0.49,0.01,0.97,0.02,1.44c0.01,0.47,0.04,0.94,0.09,1.41
		l2.81,0.39v4.43H297.56z M286.42,49.78c2.3,0,4.39-0.55,6.29-1.65c1.9-1.1,3.26-2.43,4.08-3.97V37.9h-7.38
		c-2.84,0-5.08,0.66-6.73,1.97c-1.65,1.31-2.48,2.91-2.48,4.78c0,1.66,0.52,2.94,1.55,3.81S284.33,49.78,286.42,49.78z"/>
</g>
</svg>
